<?xml version="1.0" standalone="no"?><!DOCTYPE svg PUBLIC "-//W3C//DTD SVG 1.1//EN" "http://www.w3.org/Graphics/SVG/1.1/DTD/svg11.dtd"><svg t="1739612836294" class="icon" viewBox="0 0 1024 1024" version="1.1" xmlns="http://www.w3.org/2000/svg" p-id="22251" xmlns:xlink="http://www.w3.org/1999/xlink" width="200" height="200"><path d="M1022.248 641.632c0 145.632-118.064 263.696-263.704 263.696H231.144C115.48 905.456 17.6 819.936 2.208 705.304c-15.392-114.632 56.456-222.952 168.056-253.344 25.608-143.632 142.568-253.352 287.536-269.752 144.968-16.4 283.488 64.408 340.536 198.688 128.784 19.68 223.904 130.448 223.912 260.736z m-263.704 197.768c106.512 0 193.888-84.344 197.656-190.784 3.768-106.44-77.432-196.744-183.68-204.28l-21.624-1.512-7.184-20.432C702.72 306.024 586.544 233.616 464.016 248.056c-122.528 14.448-218.68 111.88-231.496 234.592l-2.568 25.216-25.056 3.952C120.08 525.52 60.008 602.072 66.872 687.72c6.856 85.648 78.352 151.664 164.272 151.688h527.4zM346.376 486.712a49.448 49.448 0 1 1 0.016-98.896 49.448 49.448 0 0 1-0.016 98.896z m-32.96 65.928a32.96 32.96 0 1 1 65.928 0v197.776a32.968 32.968 0 1 1-65.928 0V552.64zM626.56 453.752H461.744a32.968 32.968 0 1 1 0-65.928H659.52a32.96 32.96 0 0 1 32.968 32.96v329.624a32.968 32.968 0 1 1-65.928 0V453.752zM461.744 552.64a32.968 32.968 0 1 1 0-65.928H560.64a32.96 32.96 0 0 1 0 65.928H461.744z m-32.96 65.92a32.976 32.976 0 0 1 32.968-32.968H560.64a32.96 32.96 0 0 1 32.96 32.968v98.888a32.96 32.96 0 0 1-32.96 32.96H461.744a32.96 32.96 0 0 1-32.968-32.96V618.56z m65.92 32.968v32.96h32.968v-32.96h-32.968z m0 0" fill="#52B4E7" p-id="22252"></path><path d="M346.376 486.712a49.448 49.448 0 1 1 0.016-98.896 49.448 49.448 0 0 1-0.016 98.896z m-32.96 65.928a32.96 32.96 0 1 1 65.928 0v197.776a32.968 32.968 0 1 1-65.928 0V552.64zM626.56 453.752H461.744a32.968 32.968 0 1 1 0-65.928H659.52a32.96 32.96 0 0 1 32.968 32.96v329.624a32.968 32.968 0 1 1-65.928 0V453.752zM461.744 552.64a32.968 32.968 0 1 1 0-65.928H560.64a32.96 32.96 0 0 1 0 65.928H461.744z m-32.96 65.92a32.976 32.976 0 0 1 32.968-32.968H560.64a32.96 32.96 0 0 1 32.96 32.968v98.888a32.96 32.96 0 0 1-32.96 32.96H461.744a32.96 32.96 0 0 1-32.968-32.96V618.56z m65.92 32.968v32.96h32.968v-32.96h-32.968z m0 0" fill="#EC6329" p-id="22253"></path></svg>