<?xml version="1.0" standalone="no"?><!DOCTYPE svg PUBLIC "-//W3C//DTD SVG 1.1//EN" "http://www.w3.org/Graphics/SVG/1.1/DTD/svg11.dtd"><svg t="1739496459677" class="icon" viewBox="0 0 1024 1024" version="1.1" xmlns="http://www.w3.org/2000/svg" p-id="1139" xmlns:xlink="http://www.w3.org/1999/xlink" width="200" height="200"><path d="M182.75 837.71c-16.51 0-32 0.23-47.51-0.06-16.5-0.32-23-6.53-23.06-22.79-0.11-109.29-2.11-218.63 0.5-327.85 4.69-196.36 157.93-358.88 353-377.88 216.56-21.09 406.8 133.51 430.44 350a321.88 321.88 0 0 1 1.49 34.54q0.17 159.42 0 318.84c0 19.62-5.42 25-24.85 25.21-14.51 0.15-29 0-44.35 0-1.27 4.61-2.23 8.85-3.6 13-7.2 21.68-20.73 37-44.5 38.93-16.86 1.38-34.08 1.7-50.85-0.11-27.33-3-45.93-24.73-46-52.43q-0.34-142.12 0-284.25c0.07-27.7 18.71-49.14 46-52.5a225.05 225.05 0 0 1 43.54-1.31c34.28 2.48 53 23.4 53.81 58.07 0.09 3.87 0.51 7.74 0.81 12.27h31.78c18.82-62.64-6.11-187.89-52.49-258.76-12.74 13.21-24.91 26.25-37.55 38.81-13.6 13.52-23.13 12.75-34.65-2.11-119.47-154.05-339.6-154.5-458.44-0.93-12.38 16-21.31 16.75-35.59 2.76-11.82-11.57-23.46-23.32-35.22-35a15.49 15.49 0 0 0-2.88-1.71c-51.61 77.94-60.2 164.9-53.15 257.61h33.5c0.31-4.91 0.72-8.75 0.76-12.59 0.38-34.75 18.88-55.8 53.19-58.38a231.39 231.39 0 0 1 44.94 1.34c25 3 44.32 23.56 44.48 49q0.88 145.13 0.05 290.26c-0.14 26.21-19.25 46.69-45.29 49.81a226.9 226.9 0 0 1-44.94 1.14c-31.12-2.47-47.44-19.08-53.37-52.93zM256 313c131.42-154.49 366.32-156.88 497.62-1.32l32-30.76c-143.15-189-430.07-179.24-560.7 0.43z m463.38 381.95v117.34c0 43.49 0 43.49 43.23 43.26 23.17-0.13 28.39-5.24 28.4-28.2V579.14c0-45.26-0.44-45.68-46.45-44.76-19.33 0.39-25.13 6.06-25.16 25.19q-0.11 67.68-0.02 135.38z m-499.69-0.28v120.32c0 40.47 0.18 40.65 41.23 40.55 25.94-0.06 30.16-4.37 30.16-31V579.38c0-45.59-0.3-45.89-46.14-45.06-19.57 0.35-25.2 5.79-25.23 24.94q-0.11 67.74-0.02 135.41z m-70.76-88.16v194.56h33.61V606.51z m712 194.56V607.23h-33.25v193.84z" p-id="1140"></path><path d="M256 313l-31-31.62C355.61 101.71 642.52 91.92 785.68 281l-32 30.76C622.35 156.14 387.45 158.53 256 313zM719.38 694.95V559.56c0-19.13 5.83-24.8 25.16-25.19 46-0.92 46.45-0.5 46.45 44.76v248.21c0 23-5.22 28.08-28.4 28.2-43.23 0.23-43.23 0.23-43.23-43.26q0.02-58.66 0.02-117.33zM219.69 694.67V559.31c0-19.15 5.66-24.59 25.23-24.94 45.84-0.83 46.14-0.53 46.14 45.06v245.16c0 26.59-4.22 30.9-30.16 31-41.05 0.1-41.23-0.08-41.23-40.55q0.02-60.21 0.02-120.37zM148.94 606.51h33.61v194.56h-33.61zM860.9 801.07h-33.22V607.23h33.22z" fill="#F5AA3B" p-id="1141"></path></svg>