<?xml version="1.0" standalone="no"?><!DOCTYPE svg PUBLIC "-//W3C//DTD SVG 1.1//EN" "http://www.w3.org/Graphics/SVG/1.1/DTD/svg11.dtd"><svg t="1741579803420" class="icon" viewBox="0 0 1024 1024" version="1.1" xmlns="http://www.w3.org/2000/svg" p-id="4853" xmlns:xlink="http://www.w3.org/1999/xlink" width="200" height="200"><path d="M511.58 145.42c-202.04 0-366.42 164.38-366.42 366.42 0 202.05 164.38 366.43 366.42 366.43 202.05 0 366.43-164.38 366.43-366.43 0-202.04-164.38-366.42-366.43-366.42z m0 687.04c-176.79 0-320.62-143.83-320.62-320.62s143.83-320.62 320.62-320.62S832.2 335.05 832.2 511.84c0.01 176.79-143.82 320.62-320.62 320.62z m62-474.22c-8.95-8.95-23.44-8.95-32.39 0s-8.95 23.44 0 32.39l98.32 98.32H328.37c-12.66 0-22.9 10.24-22.9 22.9 0 12.64 10.24 22.9 22.9 22.9h311.14l-98.32 98.32c-8.95 8.95-8.95 23.44 0 32.38 4.47 4.47 10.33 6.71 16.19 6.71s11.72-2.24 16.19-6.71l137.41-137.41c8.95-8.95 8.95-23.44 0-32.39l-137.4-137.41z m0 0" p-id="4854" fill="#80DEA4"></path></svg>