<?xml version="1.0" standalone="no"?><!DOCTYPE svg PUBLIC "-//W3C//DTD SVG 1.1//EN" "http://www.w3.org/Graphics/SVG/1.1/DTD/svg11.dtd"><svg t="1739495410770" class="icon" viewBox="0 0 1024 1024" version="1.1" xmlns="http://www.w3.org/2000/svg" p-id="2501" xmlns:xlink="http://www.w3.org/1999/xlink" width="200" height="200"><path d="M862.315789 503.017544c0-5.569123 0.574877-10.994526 1.652772-16.240281C812.265544 342.249544 675.588491 242.526316 512 242.526316S211.734456 342.249544 160.031439 486.777263c1.077895 5.245754 1.652772 10.671158 1.652772 16.240281v251.508772c0 1.05993-0.269474 2.065965-0.323369 3.10793C216.423298 897.706667 352.381754 997.052632 512 997.052632c159.618246 0 295.576702-99.345965 350.639158-239.400421-0.053895-1.05993-0.323368-2.065965-0.323369-3.125895V503.017544z" fill="#FFD581" p-id="2502"></path><path d="M520.982456 925.192982c-79.243228 0-143.719298-64.47607-143.719298-143.719298a17.964912 17.964912 0 1 1 35.929824 0c0 59.445895 48.343579 107.789474 107.789474 107.789474s107.789474-48.343579 107.789474-107.789474a17.964912 17.964912 0 1 1 35.929824 0c0 79.243228-64.47607 143.719298-143.719298 143.719298z" fill="#CB8252" p-id="2503"></path><path d="M395.22807 655.719298m-35.929824 0a35.929825 35.929825 0 1 0 71.859649 0 35.929825 35.929825 0 1 0-71.859649 0Z" fill="#B27821" p-id="2504"></path><path d="M646.736842 655.719298m-35.929824 0a35.929825 35.929825 0 1 0 71.859649 0 35.929825 35.929825 0 1 0-71.859649 0Z" fill="#B27821" p-id="2505"></path><path d="M879.993263 544.80393c-34.474667-195.027088-183.511579-326.063158-370.849684-326.063158-183.924772 0-330.68014 131.03607-365.154807 326.063158a17.964912 17.964912 0 0 0 12.970667 20.462035c2.874386 0.790456 71.697965 19.222456 166.588631 19.222456 93.201965 0 227.597474-18.647579 338.728421-107.41221 2.874386-2.353404 4.437333-1.041965 5.461334 0.449122 25.366456 37.798175 67.835509 101.070596 139.964631 101.070597 19.635649 0 40.439018-4.796632 61.835228-14.228211a17.964912 17.964912 0 0 0 10.455579-19.563789z" fill="#AF8066" p-id="2506"></path><path d="M80.842105 835.368421A81.075649 81.075649 0 0 1 0 754.526316V503.017544c0-44.463158 36.378947-80.842105 80.842105-80.842105S161.684211 458.554386 161.684211 503.017544v251.508772c0 44.463158-36.378947 80.842105-80.842106 80.842105zM943.157895 835.368421A81.075649 81.075649 0 0 1 862.315789 754.526316V503.017544c0-44.463158 36.378947-80.842105 80.842106-80.842105S1024 458.554386 1024 503.017544v251.508772c0 44.463158-36.378947 80.842105-80.842105 80.842105z" fill="#8697CB" p-id="2507"></path><path d="M970.105263 440.140351h-35.929824c0-222.118175-173.594947-377.263158-422.175439-377.263158S89.824561 218.022175 89.824561 440.140351H53.894737c0-239.418386 192.673684-413.192982 458.105263-413.192983S970.105263 200.721965 970.105263 440.140351z" fill="#556080" p-id="2508"></path></svg>