<?xml version="1.0" standalone="no"?><!DOCTYPE svg PUBLIC "-//W3C//DTD SVG 1.1//EN" "http://www.w3.org/Graphics/SVG/1.1/DTD/svg11.dtd"><svg t="1739870075743" class="icon" viewBox="0 0 1024 1024" version="1.1" xmlns="http://www.w3.org/2000/svg" p-id="7299" xmlns:xlink="http://www.w3.org/1999/xlink" width="200" height="200"><path d="M961.6 276.992l-169.408 117.44a25.6 25.6 0 0 1-40.192-21.056V288h-2.112a224 224 0 0 0-189.952 105.28l-169.6 271.36A288 288 0 0 1 146.112 800H96a32 32 0 0 1 0-64h50.112a224 224 0 0 0 189.952-105.28l169.6-271.36A288 288 0 0 1 749.888 224h2.112V138.56a25.6 25.6 0 0 1 40.192-20.992l169.408 117.376a25.6 25.6 0 0 1 0 42.048zM96 224a32 32 0 1 0 0 64h50.112a224 224 0 0 1 189.952 105.28l4.8 7.68a32 32 0 0 0 54.272-33.92l-4.8-7.68A288 288 0 0 0 146.112 224H96z m459.136 399.04a32 32 0 1 0-54.272 33.92l4.8 7.68a288 288 0 0 0 244.224 135.36h2.112v85.376a25.6 25.6 0 0 0 40.192 21.056l169.408-117.44a25.6 25.6 0 0 0 0-42.048l-169.408-117.376a25.6 25.6 0 0 0-40.192 20.992V736h-2.112a224 224 0 0 1-189.952-105.28l-4.8-7.68z" fill="#333333" p-id="7300"></path></svg>