<?xml version="1.0" standalone="no"?><!DOCTYPE svg PUBLIC "-//W3C//DTD SVG 1.1//EN" "http://www.w3.org/Graphics/SVG/1.1/DTD/svg11.dtd"><svg t="1739715706633" class="icon" viewBox="0 0 1024 1024" version="1.1" xmlns="http://www.w3.org/2000/svg" p-id="5325" xmlns:xlink="http://www.w3.org/1999/xlink" width="200" height="200"><path d="M705.884 61.44h76.452a81.92 81.92 0 0 1 81.92 81.92v737.28a81.92 81.92 0 0 1-81.92 81.92h-76.452a81.92 81.92 0 0 1-81.92-81.92V143.36a81.92 81.92 0 0 1 81.92-81.92z m-480.604 0h76.452a81.92 81.92 0 0 1 81.92 81.92v737.28a81.92 81.92 0 0 1-81.92 81.92H225.28a81.92 81.92 0 0 1-81.92-81.92V143.36a81.92 81.92 0 0 1 81.92-81.92z" p-id="5326" fill="#ffffff"></path></svg>