<?xml version="1.0" standalone="no"?><!DOCTYPE svg PUBLIC "-//W3C//DTD SVG 1.1//EN" "http://www.w3.org/Graphics/SVG/1.1/DTD/svg11.dtd"><svg t="1739870102147" class="icon" viewBox="0 0 1024 1024" version="1.1" xmlns="http://www.w3.org/2000/svg" p-id="8307" xmlns:xlink="http://www.w3.org/1999/xlink" width="200" height="200"><path d="M510.380106 937.061952c-21.629623 0-45.570895-12.975523-71.170946-38.540781L250.630201 709.941188l-85.402065 0c-54.627155 0-99.079576-44.452421-99.079576-99.078553L66.148559 412.709623c0-54.627155 44.452421-99.079576 99.079576-99.079576l85.402065 0 188.483792-188.478675c25.362644-25.367761 49.27424-38.213323 71.069639-38.213323 23.680329 0 51.356668 16.151865 51.356668 61.561078l0 726.57196C561.539276 920.845619 533.964244 937.061952 510.380106 937.061952L510.380106 937.061952zM165.228135 379.680369c-18.197454 0-33.028231 14.830777-33.028231 33.028231l0 198.154036c0 18.231223 14.830777 33.027208 33.028231 33.027208l99.079576 0c8.748245 0 17.168008 3.467985 23.346731 9.67536l198.224644 198.25432c3.496637 3.472078 6.701632 6.40999 9.609869 8.853645L495.488954 162.962535c-2.873444 2.413979-6.142907 5.352915-9.67536 8.884344L287.654442 370.005009c-6.1777 6.209422-14.598486 9.67536-23.346731 9.67536L165.228135 379.680369 165.228135 379.680369zM676.700109 737.15397c-6.66684 0-13.405311-2.009773-19.250436-6.207375-14.795984-10.634198-18.197454-31.275307-7.565303-46.106084l13.077853-17.899672c34.18252-46.332235 63.707974-86.393649 63.707974-155.151639 0-71.242578-26.15366-105.818047-59.283198-149.579737-5.845125-7.694239-11.692297-15.485693-17.47193-23.51353-10.633175-14.795984-7.261381-35.437094 7.563256-46.105061 14.830777-10.698666 35.437094-7.267521 46.105061 7.563256 5.418406 7.564279 10.996448 14.925944 16.479323 22.193465 35.733852 47.228651 72.656787 96.040357 72.656787 189.440583 0 90.456175-40.651862 145.642055-76.517721 194.353476l-12.619412 17.275455C697.114045 732.402759 687.004803 737.15397 676.700109 737.15397L676.700109 737.15397zM789.057083 849.2807c-7.730055 0-15.520485-2.710738-21.7647-8.193613-13.707187-12.019755-15.092743-32.892131-3.074012-46.599318C830.506101 718.892047 891.800096 632.396067 891.800096 511.789199c0-120.611985-61.293995-207.144804-127.582747-282.675034-12.018731-13.736862-10.633175-34.574447 3.074012-46.628994 13.641695-12.023848 34.509978-10.66899 46.599318 3.03308 71.170946 81.21572 143.959739 183.428659 143.959739 326.270948 0 142.835126-72.788793 245.083881-143.959739 326.228993C807.321052 845.481164 798.203394 849.2807 789.057083 849.2807L789.057083 849.2807zM789.057083 849.2807" fill="#272636" p-id="8308"></path></svg>