<?xml version="1.0" standalone="no"?><!DOCTYPE svg PUBLIC "-//W3C//DTD SVG 1.1//EN" "http://www.w3.org/Graphics/SVG/1.1/DTD/svg11.dtd"><svg t="1739499483101" class="icon" viewBox="0 0 1024 1024" version="1.1" xmlns="http://www.w3.org/2000/svg" p-id="15328" xmlns:xlink="http://www.w3.org/1999/xlink" width="200" height="200"><path d="M336.27060547 775.75185547V69.93212891H881.7734375c12.86279297 0 23.3015625 10.43876953 23.3015625 23.3015625v658.58730468c0 12.86279297-10.43876953 23.3015625-23.3015625 23.3015625-0.13974609 0-0.25576172-0.03515625-0.39550781-0.03515625-1.71386719 0.4078125-3.49541016 0.67675781-5.33671875 0.67675782H336.27148437Zm545.50371094 178.33886719c12.86279297 0 23.3015625-10.43876953 23.3015625-23.3006836v-87.7078125c0-12.86279297-10.43876953-23.3015625-23.3015625-23.3015625s-23.3015625 10.43876953-23.3015625 23.3015625v64.40625H336.27148437v46.603125H881.7734375Zm-607.99921875-46.603125c-35.40673828 0-64.31220703-28.11357422-65.73339844-63.17050782 0.03515625-0.61787109 0.15117188-1.21201172 0.13886719-1.85273437a386.16064453 386.16064453 0 0 1-0.08085938-4.74169922c2.0390625-34.49794922 30.67646484-61.97080078 65.67539063-61.97080078h15.8915039V69.93212891h-15.85634765c-62.01738281 0-112.46572266 50.45976562-112.46572266 112.46484375 0 0.82792969 0.16347656 1.61982422 0.24433594 2.42402343-0.08085937 57.27568359-0.79189453 583.56738281-0.08085938 652.76191407-0.04658203 1.35175781-0.21005859 2.66835938-0.21005859 4.03154296 0 59.62851562 46.68486328 108.43417969 105.40546875 112.11591797 1.17685547 0.18632813 2.32910156 0.36035156 3.55341797 0.36035157h19.40976562v-46.603125h-15.890625Z" fill="#1296db" p-id="15329"></path></svg>