<?xml version="1.0" standalone="no"?><!DOCTYPE svg PUBLIC "-//W3C//DTD SVG 1.1//EN" "http://www.w3.org/Graphics/SVG/1.1/DTD/svg11.dtd"><svg t="1739496309105" class="icon" viewBox="0 0 1024 1024" version="1.1" xmlns="http://www.w3.org/2000/svg" p-id="3513" xmlns:xlink="http://www.w3.org/1999/xlink" width="200" height="200"><path d="M917.186758 476.502186H106.173641C47.330418 476.502186 0 429.171768 0 370.328545V106.173641C0 47.330418 47.330418 0 106.173641 0h811.652718C976.029981 0 1023.3604 47.330418 1023.3604 106.173641V370.968145c0 58.203623-47.330418 105.534041-106.173642 105.534041z m-158.620862-264.794503H264.794503c-19.188007 0-35.178014 15.990006-35.178013 35.178013s15.990006 35.178014 35.178013 35.178014h493.771393c19.188007 0 35.178014-15.990006 35.178014-35.178014s-15.350406-35.178014-35.178014-35.178013zM106.173641 546.858214h423.415366c58.203623 0 106.173641 47.330418 106.173641 106.173641v264.794504c0 58.203623-47.330418 106.173641-106.173641 106.173641H106.173641A106.813242 106.813242 0 0 1 0 917.186758V652.392255c0-58.203623 47.330418-105.534041 106.173641-105.534041z m158.620862 282.70331H370.968145c19.188007 0 35.178014-15.990006 35.178014-35.178014s-15.990006-35.178014-35.178014-35.178013H264.794503c-19.188007 0-35.178014 15.990006-35.178013 35.178013s15.350406 35.178014 35.178013 35.178014z m585.873829 49.88882h-9.594003c-37.736415 0-74.833229-15.350406-101.69644-42.213617-26.86321-26.86321-42.213616-63.320425-42.213617-101.056839v-63.960025c0-75.472829 58.203623-138.153654 133.676453-143.270456h9.594003c79.310431 0 143.270456 63.960025 143.270456 143.270456v63.960025a141.991255 141.991255 0 0 1-133.036852 143.270456z m-159.900062-30.700812l5.116802-0.639601c9.594004-0.6396 18.548407 3.198001 24.94441 10.233604 31.980012 34.538413 73.554029 51.80762 115.128045 53.726421h10.233604l10.233604-0.6396c40.294816-4.477202 77.39163-23.025609 104.25484-53.086821 5.116802-5.756402 12.152405-8.954403 19.188008-9.594003h5.116802l5.116802 0.6396c10.873204 2.558401 19.827608 10.873204 23.665209 21.746408 3.198001 10.873204 0.6396 23.025609-7.035603 31.340413-35.178014 38.376015-83.148032 63.960025-134.955652 71.635228v17.908807c0 15.350406-10.873204 28.782011-26.223611 31.340412h-4.477201c-15.990006 0-30.061212-12.152405-31.980013-28.142411v-21.746409c-51.80762-7.675203-99.777639-33.259213-134.955653-71.635228a32.875453 32.875453 0 0 1-7.035602-31.340412c3.198001-10.873204 12.152405-19.188007 23.665209-21.746408z" fill="#0E7EFC" p-id="3514"></path></svg>