<?xml version="1.0" standalone="no"?><!DOCTYPE svg PUBLIC "-//W3C//DTD SVG 1.1//EN" "http://www.w3.org/Graphics/SVG/1.1/DTD/svg11.dtd"><svg t="1739495988708" class="icon" viewBox="0 0 1024 1024" version="1.1" xmlns="http://www.w3.org/2000/svg" p-id="1250" xmlns:xlink="http://www.w3.org/1999/xlink" width="200" height="200"><path d="M115.52 341.888l-98.048 19.968v553.664s130.112-177.728 510.4-14.656c8.448 3.584-51.136-423.552-235.392-567.232-49.536-38.656-206.528 2.112-176 2.24" fill="#F4C356" p-id="1251"></path><path d="M17.472 931.456a15.872 15.872 0 0 1-16-15.936V361.856a16 16 0 0 1 12.8-15.68l83.648-17.024a17.6 17.6 0 0 1 6.336-8.192c15.232-10.56 148.352-38.72 198.08 0.064 184.704 144 253.312 564.608 239.68 587.84a16.448 16.448 0 0 1-20.416 6.656c-362.368-155.392-489.92 7.872-491.2 9.472a16.128 16.128 0 0 1-12.928 6.464z m16-556.544v502.784c56.128-44.416 199.04-113.6 477.184-1.344-11.392-87.68-74.432-410.304-228.032-530.048-30.272-23.744-119.488-10.624-151.296-1.856a16.064 16.064 0 0 1-12.608 13.184l-85.248 17.28z" fill="" p-id="1252"></path><path d="M910.336 341.888l96.192 19.968v553.664s-209.536-168.768-483.648-14.656" fill="#F4C356" p-id="1253"></path><path d="M1006.528 931.52a16 16 0 0 1-9.984-3.52c-8.32-6.656-205.12-159.808-465.792-13.248a16 16 0 0 1-15.68-27.904c224.256-126.208 409.408-41.152 475.456-1.344V374.848l-83.456-17.344a16 16 0 0 1-12.416-18.88 15.68 15.68 0 0 1 18.944-12.416l96.192 19.968a16 16 0 0 1 12.736 15.68v553.664a16.192 16.192 0 0 1-9.088 14.464 16.256 16.256 0 0 1-6.912 1.536z" fill="" p-id="1254"></path><path d="M70.016 336.128v483.712s265.28-113.472 456.448 44.608c0.128-317.568-5.952-511.552-5.952-511.552s-173.504-206.464-450.496-16.768z" fill="#FAD97F" p-id="1255"></path><path d="M526.464 880.512a15.808 15.808 0 0 1-10.176-3.712c-64.512-53.312-145.024-80.384-239.296-80.384a570.24 570.24 0 0 0-200.704 38.144 16.064 16.064 0 0 1-15.104-1.344 16.128 16.128 0 0 1-7.168-13.376V336.128c0-5.312 2.624-10.24 6.976-13.184 80.32-55.04 160.32-82.944 237.632-82.944 146.176 0 230.656 98.496 234.176 102.656a16.192 16.192 0 0 1 3.776 9.792c0.064 1.92 6.08 197.888 5.952 512.064a16.128 16.128 0 0 1-16.064 16z m-249.472-116.096c89.6 0 168 22.784 233.472 67.968a17982.208 17982.208 0 0 0-5.76-473.024c-16.704-17.472-91.008-87.36-206.08-87.36-68.544 0-140.032 24.448-212.608 72.704v452.16a605.248 605.248 0 0 1 190.976-32.448z" fill="" p-id="1256"></path><path d="M956.032 337.024v489.728s-246.144-114.88-429.696 45.312c1.6-308.16-3.136-518.08-3.136-518.08s166.656-209.152 432.832-16.96z" fill="#FAD97F" p-id="1257"></path><path d="M526.272 888.064a17.28 17.28 0 0 1-6.656-1.408 16.128 16.128 0 0 1-9.344-14.656c1.6-304.448-3.072-515.52-3.136-517.632a15.808 15.808 0 0 1 3.52-10.368c3.392-4.224 84.736-104.256 225.664-104.256 74.56 0 151.616 28.352 229.056 84.224a16.128 16.128 0 0 1 6.656 12.992v489.728a16.192 16.192 0 0 1-7.36 13.504 16.192 16.192 0 0 1-15.36 1.024 494.08 494.08 0 0 0-186.432-38.4c-88.192 0-164.224 27.328-225.984 81.28a16.704 16.704 0 0 1-10.624 3.968z m12.992-528.256c0.704 35.52 4.16 220.416 3.2 478.976 62.528-45.12 136.512-67.968 220.352-67.968 77.952 0 144 19.968 177.216 32.128V345.28c-69.568-48.768-138.048-73.472-203.712-73.472-110.144 0-180.736 70.016-197.056 88z" fill="" p-id="1258"></path><path d="M502.016 342.656h39.68v508.352h-39.68z" fill="" p-id="1259"></path><path d="M797.056 29.12l-56 56.064 113.152 112.128 56.128-56.064z" fill="#F2385A" p-id="1260"></path><path d="M552.064 271.04L367.232 453.76l113.216 112.256 358.208-354.176-113.216-112.128z" fill="#9DE8F7" p-id="1261"></path><path d="M338.176 546.24l48.768 47.744 71.68-18.752-101.824-100.672z" fill="#FFFFFF" p-id="1262"></path><path d="M797.056 0L345.408 446.528l-2.048 2.048-50.88 191.168 190.016-48.896 3.136-1.024 453.76-448.64L797.056 0zM386.944 593.984l-48.768-47.744 18.688-71.68 101.824 100.672-71.744 18.752z m93.504-27.968L367.232 453.76l184.832-182.72 173.376-171.328 113.216 112.128-358.208 354.176z m260.608-480.832l56-56.064 113.28 112.128-56.128 56.064-113.152-112.128z" fill="" p-id="1263"></path></svg>