<?xml version="1.0" standalone="no"?><!DOCTYPE svg PUBLIC "-//W3C//DTD SVG 1.1//EN" "http://www.w3.org/Graphics/SVG/1.1/DTD/svg11.dtd"><svg t="1739495882294" class="icon" viewBox="0 0 1024 1024" version="1.1" xmlns="http://www.w3.org/2000/svg" p-id="1108" xmlns:xlink="http://www.w3.org/1999/xlink" width="200" height="200"><path d="M489.73913 44.521739c51.511652 0 100.930783 20.123826 137.394087 55.874783a189.083826 189.083826 0 0 1 56.898783 134.900869v222.608696c0 50.621217-20.48 99.149913-56.898783 134.945391A196.073739 196.073739 0 0 1 489.73913 648.726261a196.073739 196.073739 0 0 1-137.394087-55.874783 189.083826 189.083826 0 0 1-56.898782-134.900869v-222.608696c0-50.621217 20.48-99.149913 56.898782-134.90087A196.073739 196.073739 0 0 1 489.73913 44.521739z m-307.645217 413.42887c26.846609 0 48.128 21.949217 53.292522 48.261565a253.017043 253.017043 0 0 0 71.190261 131.606261A261.431652 261.431652 0 0 0 489.73913 712.347826a261.431652 261.431652 0 0 0 183.162435-74.529391 253.017043 253.017043 0 0 0 71.145739-131.606261c5.209043-26.312348 26.490435-48.261565 53.292522-48.261565 26.846609 0 48.973913 21.815652 45.189565 48.439652-24.041739 170.25113-172.833391 301.367652-352.790261 301.367652s-328.793043-131.116522-352.79026-301.412174c-3.739826-26.534957 18.342957-48.39513 45.189565-48.39513z m259.116522 381.595826h97.057391c12.911304 0 25.288348 5.030957 34.370783 13.979826a47.282087 47.282087 0 0 1 0 67.450435c-9.082435 8.94887-21.459478 13.979826-34.326261 13.979826H441.165913c-12.911304 0-25.243826-5.030957-34.326261-13.979826a47.282087 47.282087 0 0 1 0-67.450435 48.973913 48.973913 0 0 1 34.326261-13.979826z" fill="#FA6400" p-id="1109"></path></svg>