<?xml version="1.0" standalone="no"?><!DOCTYPE svg PUBLIC "-//W3C//DTD SVG 1.1//EN" "http://www.w3.org/Graphics/SVG/1.1/DTD/svg11.dtd"><svg t="1740238478888" class="icon" viewBox="0 0 1024 1024" version="1.1" xmlns="http://www.w3.org/2000/svg" p-id="2715" xmlns:xlink="http://www.w3.org/1999/xlink" width="200" height="200"><path d="M511.999126 0c-282.769199 0-511.997377 229.229927-511.997377 512.000874S229.231676 1023.998251 511.999126 1023.998251 1023.998251 794.770073 1023.998251 512.000874C1024.001749 229.233424 794.771822 0.001749 511.999126 0z m-140.884445 672.756844c-19.268192 23.481032-41.187553 3.658473-41.187553 3.658474-62.319957-58.860846-100.410399-141.961701-100.410399-231.970285 0-90.010332 38.090442-173.111187 100.410399-231.959791 0 0 20.770404-18.956907 41.406152 2.99743 17.631323 18.762791 0.134657 38.54163 0.134657 38.54163-48.471272 48.47477-79.629502 117.719944-79.629502 190.42248 0 72.706034 31.15823 141.951208 79.629502 190.418983 0-0.001749 16.503352 19.226221-0.353256 37.891079z m287.71828 162.903487c-17.307796 0-34.626085-3.469604-51.93388-10.400067-41.535562-20.770404-65.775571-51.930383-83.097357-107.328621-10.384328-31.152983-27.700868-44.994673-51.93563-62.305966-24.233013-20.765158-58.846856-45.005166-86.547723-93.469444-24.229515-38.09394-34.620838-79.629502-34.620839-117.716446 0-117.714698 93.481685-211.191136 214.648498-211.191136 121.168562 0 214.646749 93.486931 214.646749 211.191136 0 0-2.437816 22.96339-30.927389 24.341438-32.670935 1.580908-31.387322-24.341438-31.387321-24.341438 0-83.097357-65.779068-148.86943-152.33029-148.86943-86.559965 0-152.335536 65.775571-152.335536 148.86943 0 27.699119 6.925217 58.8556 24.236511 86.549473 24.227767 38.085196 48.469523 58.859098 72.69729 76.170391 27.695621 20.7774 55.401735 41.551302 72.709531 90.017327 13.846936 45.017408 31.154732 62.326952 51.930383 72.704285 8.360975 3.466106 8.360975 3.466106 24.229515 3.466106 34.626085 0 58.939542-22.620627 58.874837-58.873088 0 0-2.343381-25.312018 32.753128-25.579583 29.56508-0.918116 29.56508 25.579583 29.565081 25.579583 0.001749 65.79131-55.39474 121.18605-121.175558 121.18605z m-17.314791-391.215298c0 41.540809-34.61909 76.170391-76.170391 76.170392-41.549553 0-76.170391-34.629582-76.170391-76.170392 0-41.53906 34.61909-76.165145 76.170391-76.165144s76.170391 34.624336 76.170391 76.165144z" fill="#93A0F9" p-id="2716"></path></svg>