<?xml version="1.0" standalone="no"?><!DOCTYPE svg PUBLIC "-//W3C//DTD SVG 1.1//EN" "http://www.w3.org/Graphics/SVG/1.1/DTD/svg11.dtd"><svg t="1739603580164" class="icon" viewBox="0 0 1024 1024" version="1.1" xmlns="http://www.w3.org/2000/svg" p-id="5791" xmlns:xlink="http://www.w3.org/1999/xlink" width="200" height="200"><path d="M770.3552 302.1824a34.7136 34.7136 0 0 1 48.9472 1.024 34.74432 34.74432 0 0 1-1.024 49.0496l-409.6 392.704L215.9616 560.128a34.52928 34.52928 0 0 1-1.024-48.9472 34.64192 34.64192 0 0 1 49.0496-1.024l144.7936 138.6496 361.5744-346.624z m0 0" fill="#007FFF" p-id="5792"></path><path d="M517.12 1008.64C242.8928 1008.64 20.48 786.2272 20.48 512S242.8928 15.36 517.12 15.36 1013.76 237.7728 1013.76 512 791.3472 1008.64 517.12 1008.64z m0-69.3248c236.032 0 427.3152-191.3856 427.3152-427.3152 0-236.032-191.3856-427.3152-427.3152-427.3152C281.088 84.6848 89.8048 275.968 89.8048 512c0 236.032 191.2832 427.3152 427.3152 427.3152z m0 0" fill="#007FFF" p-id="5793"></path></svg>