<?xml version="1.0" standalone="no"?><!DOCTYPE svg PUBLIC "-//W3C//DTD SVG 1.1//EN" "http://www.w3.org/Graphics/SVG/1.1/DTD/svg11.dtd"><svg t="1739870043722" class="icon" viewBox="0 0 1024 1024" version="1.1" xmlns="http://www.w3.org/2000/svg" p-id="6192" xmlns:xlink="http://www.w3.org/1999/xlink" width="200" height="200"><path d="M554.21 55.95H87.07c-16.57 0-30 13.43-30 30s13.43 30 30 30h467.14c16.57 0 30-13.43 30-30s-13.43-30-30-30zM88.81 980.3h862.61c16.57 0 30-13.43 30-30s-13.43-30-30-30H88.81c-16.57 0-30 13.43-30 30s13.43 30 30 30zM554.21 632.18H87.07c-16.57 0-30 13.43-30 30s13.43 30 30 30h467.14c16.57 0 30-13.43 30-30s-13.43-30-30-30zM554.21 344.07H87.07c-16.57 0-30 13.43-30 30s13.43 30 30 30h467.14c16.57 0 30-13.43 30-30s-13.43-30-30-30zM918.17 566.55L727.94 732.91V85.95c0-16.57-13.43-30-30-30h-1.75c-16.57 0-30 13.43-30 30v715.61c0 25.77 30.35 39.55 49.75 22.58l242.25-211.87c12.73-11.13 13.75-30.57 2.26-42.97l-0.52-0.56c-11.04-11.91-29.54-12.88-41.76-2.19z" p-id="6193"></path></svg>