<?xml version="1.0" standalone="no"?><!DOCTYPE svg PUBLIC "-//W3C//DTD SVG 1.1//EN" "http://www.w3.org/Graphics/SVG/1.1/DTD/svg11.dtd"><svg t="1739870112703" class="icon" viewBox="0 0 1024 1024" version="1.1" xmlns="http://www.w3.org/2000/svg" p-id="9378" xmlns:xlink="http://www.w3.org/1999/xlink" width="200" height="200"><path d="M704.95744 272.1792c-10.20928-4.247552-22.299648-3.272704-31.946752 3.687424-12.7232 9.15456-17.000448 25.652224-11.240448 39.499776L704.95744 272.1792z" fill="#272636" p-id="9379"></path><path d="M817.104896 160.031744c-11.24864-4.596736-24.589312-2.814976-34.281472 5.72928-10.878976 9.567232-13.986816 24.664064-8.802304 37.354496L817.104896 160.031744z" fill="#272636" p-id="9380"></path><path d="M180.759552 693.216256l85.4016 0 8.879104 8.879104 46.698496-46.698496-18.553856-18.556928c-6.177792-6.207488-14.598144-9.675776-23.3472-9.675776l-99.079168 0c-18.197504 0-33.028096-14.795776-33.028096-33.027072L147.730432 395.984896c0-18.197504 14.830592-33.028096 33.028096-33.028096l99.079168 0c8.748032 0 17.168384-3.467264 23.3472-9.675776l198.15936-198.158336c3.5328-3.5328 6.803456-6.47168 9.675776-8.884224l0 319.879168 66.051072-66.051072L577.071104 131.774464c0-45.40928-27.676672-61.560832-51.356672-61.560832-21.794816 0-45.70624 12.84608-71.069696 38.213632L266.161152 296.904704l-85.4016 0c-54.627328 0-99.079168 44.452864-99.079168 99.079168l0 198.15424C81.67936 648.763392 126.132224 693.216256 180.759552 693.216256z" fill="#272636" p-id="9381"></path><path d="M745.362432 318.604288l-47.246336 47.246336c25.586688 35.320832 44.085248 69.301248 44.085248 129.212416 0 68.75648-29.526016 108.819456-63.70816 155.15136l-13.077504 17.89952c-10.633216 14.830592-7.230464 35.472384 7.565312 46.1056 5.844992 4.197376 12.583936 6.207488 19.250176 6.207488 10.304512 0 20.41344-4.75136 26.884096-13.73696l12.619776-17.275904c35.8656-48.71168 76.517376-103.896064 76.517376-194.353152C808.251392 410.172416 777.749504 362.116096 745.362432 318.604288z" fill="#272636" p-id="9382"></path><path d="M511.020032 552.946688l0 291.002368c-2.90816-2.443264-6.11328-5.382144-9.61024-8.853504L365.151232 698.815488l-46.6944 46.695424 136.28416 136.28416c25.6 25.565184 49.54112 38.541312 71.171072 38.541312 23.583744 0 51.15904-16.216064 51.15904-61.989888L577.071104 486.89664 511.020032 552.946688z" fill="#272636" p-id="9383"></path><path d="M859.457536 204.509184l-46.99136 46.99136c52.432896 66.458624 94.864384 143.214592 94.864384 243.564544 0 120.60672-61.293568 207.102976-127.583232 282.699776-12.018688 13.707264-10.633216 34.579456 3.074048 46.599168 6.244352 5.482496 14.034944 8.194048 21.76512 8.194048 9.146368 0 18.264064-3.800064 24.834048-11.262976 71.171072-81.144832 143.960064-183.394304 143.960064-326.228992C973.382656 372.390912 919.697408 279.68512 859.457536 204.509184z" fill="#272636" p-id="9384"></path><path d="M939.924942 43.973103l36.20352 36.20352-861.140547 861.140547-36.20352-36.20352 861.140547-861.140547Z" fill="#272636" p-id="9385"></path></svg>