<?xml version="1.0" standalone="no"?><!DOCTYPE svg PUBLIC "-//W3C//DTD SVG 1.1//EN" "http://www.w3.org/Graphics/SVG/1.1/DTD/svg11.dtd"><svg t="1740236775802" class="icon" viewBox="0 0 1024 1024" version="1.1" xmlns="http://www.w3.org/2000/svg" p-id="7029" xmlns:xlink="http://www.w3.org/1999/xlink" width="200" height="200"><path d="M512 0.851913C229.692912 0.851913 0.851913 229.692912 0.851913 512s228.840998 511.148087 511.148087 511.148087 511.148087-228.840998 511.148087-511.148087S794.307088 0.851913 512 0.851913z m-211.274542 422.770583h-41.607455v207.730582q-1.482329 28.965058-29.748818 28.965058-26.750083 0-28.266489-28.965058V423.622496H159.461165q-20.820765 0-22.303095-28.965058 1.482329-25.744825 22.303095-27.3805h141.264293q23.853577 1.601597 25.284792 27.3805-1.431215 27.380499-25.284792 28.965058z m163.567387 236.712679h-98.072279q-26.750083-1.584559-28.249451-30.668885V402.682463q0-35.388486 28.249451-35.422563h95.20985q25.267754 1.703827 26.767121 27.380499-1.482329 27.397537-26.767121 28.965059H394.43594v59.633943h62.530449q25.267754 1.601597 28.26649 28.965058-3.015774 27.397537-28.26649 28.965058h-62.530449v62.837139h69.856905q25.267754 0 26.78416 27.380499-1.397138 27.363461-26.68193 28.94802z m130.922063 1.601597q-90.745824-1.601597-92.228153-43.481664 1.465291-27.346423 25.284792-28.965058 7.411647 0 26.78416 6.440466 23.768386 9.660699 37.177504 9.660699 37.160466-1.584559 38.676872-35.422563 0-19.321398-47.604925-35.422562-78.733844-24.160266-78.733844-78.97238 5.929318-86.895175 93.710483-93.403793 71.373311 4.804792 74.372047 40.244392-1.516406 28.965058-25.284792 30.668886-5.946356 0-20.820766-4.838869-17.873145-6.406389-29.748818-6.423427-29.765857 1.601597-31.231149 25.744825 0 17.770915 43.123861 30.668885 84.799468 27.397537 84.782429 91.785158-5.980433 86.878136-98.157471 91.717005z m266.34223-238.314276h-41.658569v207.730582q-1.482329 28.965058-29.748819 28.965058-26.767121 0-28.24945-28.965058V423.622496h-41.65857c-13.903228 0-21.297837-9.660699-22.303094-28.965058 1.005258-17.157537 8.399867-26.307088 22.303094-27.3805h141.315408q23.853577 1.601597 25.284792 27.3805-1.499368 27.380499-25.284792 28.965058z" fill="#6DB93D" p-id="7030"></path></svg>