<?xml version="1.0" standalone="no"?><!DOCTYPE svg PUBLIC "-//W3C//DTD SVG 1.1//EN" "http://www.w3.org/Graphics/SVG/1.1/DTD/svg11.dtd"><svg t="1739496738168" class="icon" viewBox="0 0 1024 1024" version="1.1" xmlns="http://www.w3.org/2000/svg" p-id="5872" xmlns:xlink="http://www.w3.org/1999/xlink" width="200" height="200"><path d="M512 2C230.3 2 2 230.3 2 512s228.3 510 510 510 510-228.3 510-510S793.7 2 512 2zM280.4 764c-5 5-11.5 7.5-18 7.5s-13-2.5-18-7.5c-143.8-143.8-143.8-377.8 0-521.6 10-10 26.1-10 36.1 0s10 26.1 0 36.1c-123.9 123.9-123.9 325.6 0 449.5 9.9 9.9 9.9 26.1-0.1 36z m81-80.9c-5 5-11.5 7.5-18 7.5s-13-2.5-18-7.5c-48.1-48-74.5-111.9-74.5-179.8s26.4-131.8 74.5-179.9c10-10 26.1-10 36.1 0s10 26.1 0 36.1c-38.4 38.4-59.6 89.5-59.6 143.8s21.1 105.4 59.6 143.8c9.8 9.9 9.8 26-0.1 36z m80.9-116.9c10 10 10 26.1 0 36.1-5 5-11.5 7.5-18 7.5s-13-2.5-18-7.5c-26.4-26.4-41-61.6-41-99s14.5-72.6 41-99c10-10 26.1-10 36.1 0s10 26.1 0 36.1c-16.8 16.8-26 39.1-26 62.9-0.1 23.7 9.1 46 25.9 62.9z m360.8 300.1c-9.7-25-16.8-45.9-17.9-53.5-6.6-7.7-10.7-17.3-10.7-29.6v-23c0-27-9.2-36.2-36.7-36.2-4.6 0-40.8 9.2-54.6 9.2-50 0-77.5-26.5-77.5-71.9l-1.5-30.6c-0.5-6.1 2.5-11.7 15.8-12.8 7.1 0 76.5-4.1 68.9-13.3-9.7-2.5-59.7-1.5-77.5-5.1-8.7-1.5-16.3-9.2-16.3-19.9 0-34.2 4.1-43.3-7.1-46.4 0 0-4.6-3.1-13.8-4.6-23-4.6-28.9-8-39.6-16.7-7.6-8.2-2.4-33.3 2.2-42.4 9.2-27.5 33.1-60.4 51.5-88 6.9-9.8 18-21.2 22.6-30.4 4.6-4.6 4.6-9.2 0-13.8-8.7-63.2-9.2-113.7 27-168.3 16.8-30.1 40.8-52.5 74.5-69.9 153 74 258.6 231 258.6 412.6-0.1 143-65.4 270.5-167.9 354.6z" fill="#00A0F0" p-id="5873"></path></svg>