<?xml version="1.0" standalone="no"?><!DOCTYPE svg PUBLIC "-//W3C//DTD SVG 1.1//EN" "http://www.w3.org/Graphics/SVG/1.1/DTD/svg11.dtd"><svg t="1739547448659" class="icon" viewBox="0 0 1024 1024" version="1.1" xmlns="http://www.w3.org/2000/svg" p-id="18681" xmlns:xlink="http://www.w3.org/1999/xlink" width="200" height="200"><path d="M30.464 109.824S518.272 33.024 518.272 210.773333H420.437333L30.464 109.824z" fill="#EAF4EF" p-id="18682"></path><path d="M1006.165333 109.824S518.314667 33.024 518.314667 210.773333h97.877333l389.973333-100.949333z" fill="#EAF4EF" p-id="18683"></path><path d="M420.437333 210.773333s87.765333 34.474667 182.826667 0V947.2s-82.261333 59.818667-182.826667 0V210.773333z" fill="#48C18D" p-id="18684"></path><path d="M603.264 210.773333H420.437333s87.765333 34.474667 182.826667 0" fill="#2F8E63" p-id="18685"></path><path d="M420.437333 241.621333s91.818667 42.581333 182.826667 0v90.624s-79.189333 63.146667-182.826667 0V241.621333zM420.437333 815.488s91.818667 42.538667 182.826667 0v90.581333s-79.189333 63.146667-182.826667 0v-90.581333z" fill="#30B277" p-id="18686"></path><path d="M0 101.973333v674.688L420.437333 947.2V210.773333z" fill="#83E2BE" p-id="18687"></path><path d="M21.888 752.64l376.661333 152.746667V240.426667L21.888 142.976V752.64z m384.938667 164.992L13.653333 758.144V132.309333l5.205334 1.365334 388.010666 100.437333v683.52z" fill="#4FC696" p-id="18688"></path><path d="M1023.701333 101.973333v674.688L603.264 947.2V210.773333z" fill="#83E2BE" p-id="18689"></path><path d="M1001.813333 142.976l-376.661333 97.493333V905.386667l376.661333-152.746667V143.018667z m-384.981333 91.136l388.096-100.437333 5.162667-1.365334V758.186667l-393.258667 159.488V234.112z" fill="#4FC696" p-id="18690"></path></svg>