<?xml version="1.0" standalone="no"?><!DOCTYPE svg PUBLIC "-//W3C//DTD SVG 1.1//EN" "http://www.w3.org/Graphics/SVG/1.1/DTD/svg11.dtd"><svg t="1739547089408" class="icon" viewBox="0 0 1024 1024" version="1.1" xmlns="http://www.w3.org/2000/svg" p-id="16451" xmlns:xlink="http://www.w3.org/1999/xlink" width="200" height="200"><path d="M793.664646 966.076768H230.206061c-99.555556 0-181.010101-81.454545-181.010101-181.010101V221.478788c0-99.555556 81.454545-181.010101 181.010101-181.010101H793.793939c99.555556 0 181.010101 81.454545 181.010101 181.010101v563.587879c-0.129293 99.555556-81.583838 181.010101-181.139394 181.010101z" fill="#85C6A8" p-id="16452"></path><path d="M260.977778 423.822222h23.531313c14.868687 0 27.022222-12.153535 27.022222-27.022222v-47.967677h399.515152v47.967677c0 14.868687 12.153535 27.022222 27.022222 27.022222h23.531313c14.868687 0 27.022222-12.153535 27.022222-27.022222V301.252525c0-11.636364-7.886869-21.591919-18.618182-24.824242-2.715152-0.905051-5.430303-1.422222-8.40404-1.422222h-23.531313c-1.292929 0-2.585859 0.129293-3.878788 0.258585H561.325253c-0.517172-2.456566-1.163636-5.042424-2.19798-7.498989l-25.341414-61.802021c-8.40404-20.29899-31.806061-30.125253-52.234344-21.850505l-12.929293 5.30101c-20.29899 8.40404-30.125253 31.806061-21.850505 52.234344l13.834344 33.616161H288.387879c-1.292929-0.129293-2.585859-0.258586-3.878788-0.258585h-23.531313c-14.868687 0-27.022222 12.153535-27.022222 27.022222v94.642424c0 14.99798 12.153535 27.151515 27.022222 27.151515z" fill="#FFFFFF" p-id="16453"></path><path d="M766.513131 557.89899H573.349495l107.313131-99.167677c7.369697-6.852525 7.757576-18.359596 1.034344-25.729293l-24.177778-26.117172c-3.620202-4.783838-9.309091-8.016162-15.773737-8.016161H360.791919c-10.860606 0-19.652525 8.921212-19.652525 19.652525V452.525253c0 10.860606 8.921212 19.652525 19.652525 19.652525h197.042424l-92.70303 85.591919H257.357576c-14.351515 0-26.117172 11.765657-26.117172 26.117172V605.090909c0 14.351515 11.765657 26.117172 26.117172 26.117172H470.561616v97.357576l-42.278788-13.317172c-21.20404-6.723232-43.959596 5.171717-50.682828 26.375757l-0.258586 0.905051c-6.723232 21.20404 5.171717 43.959596 26.375758 50.682828l94.90101 29.866667c21.20404 6.723232 43.959596-5.171717 50.682828-26.375758l0.258586-0.90505c1.292929-4.137374 1.939394-8.40404 1.810101-12.541414 0.129293-0.775758 0.129293-1.422222 0.129293-2.19798V631.337374h215.014141c14.351515 0 26.117172-11.765657 26.117172-26.117172v-21.20404c0-14.351515-11.765657-26.117172-26.117172-26.117172z" fill="#FFFFFF" p-id="16454"></path></svg>