<?xml version="1.0" standalone="no"?><!DOCTYPE svg PUBLIC "-//W3C//DTD SVG 1.1//EN" "http://www.w3.org/Graphics/SVG/1.1/DTD/svg11.dtd"><svg t="1739613576609" class="icon" viewBox="0 0 1024 1024" version="1.1" xmlns="http://www.w3.org/2000/svg" p-id="23357" xmlns:xlink="http://www.w3.org/1999/xlink" width="200" height="200"><path d="M830.4 292.1c-0.1-0.9-0.8-1.5-1.6-1.5s-1.6 0.6-1.6 1.5v0.2h3.3l-0.1-0.2z" fill="#1296db" p-id="23358"></path><path d="M910.2 13.9H113.8C51.8 13 0.9 62.6 0 124.6v774.9c0.9 62 51.8 111.5 113.8 110.7h796.4c62 0.8 112.9-48.7 113.8-110.7V124.6c-0.8-62-51.7-111.5-113.8-110.7 0.1 0 0.1 0 0 0zM332.4 244.6c23.2 31.2 48.2 65.4 74.7 102.8-1.6 0-3.9 1.5-7 4.6-12.5 6.2-34.2 19.5-65.4 39.8-20.3-37.9-42.9-74.5-67.7-109.6l65.4-37.6z m-14 534.7l-39.8-56c9.5-11 13.7-25.5 11.7-39.8V501.3h-53.7v-74.7h130.8v219.5c20.5-13.4 40-28.2 58.4-44.4 2.2 28.2 6.1 56.3 11.7 84-43.6 25.9-83.6 57.4-119.1 93.6zM766.7 714c-10.9 34.2-42 51.4-93.4 51.4H533.2c-54.5 0-81.7-28.8-81.7-86.4V447.8h212.1V342.7H442v-72.4h303.5v247.5H530.7v144.8c1.6 24.9 14 37.4 37.4 37.4h84.1c22.5 2 42.4-14.7 44.3-37.3v-0.1c0.3-8.6 1.1-17.2 2.3-25.7l7-49c23.6 9.4 47.8 17.2 72.4 23.3-24.9-7.8-21.8-7 9.3 2.3-9.3 46.7-16.3 80.2-21 100.4h0.2z" fill="#1296db" p-id="23359"></path></svg>