<?xml version="1.0" standalone="no"?><!DOCTYPE svg PUBLIC "-//W3C//DTD SVG 1.1//EN" "http://www.w3.org/Graphics/SVG/1.1/DTD/svg11.dtd"><svg t="1739496594318" class="icon" viewBox="0 0 1024 1024" version="1.1" xmlns="http://www.w3.org/2000/svg" p-id="1424" xmlns:xlink="http://www.w3.org/1999/xlink" width="200" height="200"><path d="M502.964706 228.894118c-9.035294 0-12.047059 3.011765-15.058824 12.047058l-69.270588 195.764706h168.658824L515.011765 240.941176c0-6.023529-6.023529-12.047059-12.047059-12.047058z" fill="#1890FF" p-id="1425"></path><path d="M843.294118 0H180.705882C114.447059 0 60.235294 54.211765 60.235294 120.470588v783.058824c0 66.258824 54.211765 120.470588 120.470588 120.470588h662.588236c66.258824 0 120.470588-54.211765 120.470588-120.470588V120.470588c0-66.258824-54.211765-120.470588-120.470588-120.470588z m-225.882353 843.294118h-240.941177c-15.058824 0-30.117647-15.058824-30.117647-30.117647s15.058824-30.117647 30.117647-30.117647h240.941177c15.058824 0 30.117647 15.058824 30.117647 30.117647s-15.058824 30.117647-30.117647 30.117647z m75.294117-174.682353c-18.070588 0-30.117647-9.035294-36.141176-24.094118l-48.188235-135.529412H391.529412l-48.188236 135.529412c-6.023529 18.070588-18.070588 24.094118-36.141176 24.094118-24.094118 0-36.141176-18.070588-36.141176-39.152941 0-6.023529 0-9.035294 3.011764-15.058824l144.564706-400.564706c15.058824-42.164706 42.164706-63.247059 84.329412-63.247059s69.270588 21.082353 84.329412 63.247059l144.564706 400.564706c0 3.011765 3.011765 9.035294 3.011764 12.047059-3.011765 21.082353-18.070588 42.164706-42.164706 42.164706z" fill="#1890FF" p-id="1426"></path></svg>