<?xml version="1.0" standalone="no"?><!DOCTYPE svg PUBLIC "-//W3C//DTD SVG 1.1//EN" "http://www.w3.org/Graphics/SVG/1.1/DTD/svg11.dtd"><svg t="1739496068764" class="icon" viewBox="0 0 1024 1024" version="1.1" xmlns="http://www.w3.org/2000/svg" p-id="1404" xmlns:xlink="http://www.w3.org/1999/xlink" width="200" height="200"><path d="M256 426.666667c7.314286 0 14.628571-4.87619 19.504762-14.628572L316.952381 277.942857l41.447619 134.095238c4.87619 9.752381 9.752381 14.628571 19.504762 14.628572s14.628571-4.87619 19.504762-14.628572l56.07619-158.47619c0-4.87619 2.438095-7.314286 2.438096-12.190476-2.438095-9.752381-7.314286-14.628571-14.628572-14.628572-9.752381 0-17.066667 4.87619-19.504762 17.066667l-41.447619 136.533333-41.447619-131.657143c-4.87619-17.066667-12.190476-24.380952-21.942857-21.942857-9.752381 0-17.066667 7.314286-19.504762 21.942857l-41.447619 131.657143L214.552381 243.809524c-4.87619-12.190476-9.752381-17.066667-19.504762-17.066667s-14.628571 4.87619-14.628571 14.628572c0 4.87619 0 9.752381 2.438095 12.190476l56.07619 158.47619c2.438095 9.752381 7.314286 14.628571 17.066667 14.628572zM490.057143 689.980952c2.438095 36.571429 14.628571 56.07619 39.009524 56.076191 26.819048 0 39.009524-19.504762 41.447619-56.076191 0-36.571429-14.628571-56.07619-39.009524-56.07619-26.819048 2.438095-41.447619 19.504762-41.447619 56.07619zM709.485714 655.847619c0-17.066667-9.752381-24.380952-29.257143-24.380952h-31.695238v48.761904h31.695238c19.504762 2.438095 29.257143-7.314286 29.257143-24.380952zM804.571429 633.904762h-17.066667v112.152381h17.066667c31.695238 0 46.32381-19.504762 46.323809-56.076191-2.438095-36.571429-17.066667-56.07619-46.323809-56.07619z" fill="#4995E8" p-id="1405"></path><path d="M841.142857 546.133333h-65.828571v-195.047619h-2.438096L546.133333 102.4l-2.438095-2.438095v2.438095H182.857143C136.533333 102.4 99.961905 138.971429 99.961905 185.295238v658.285714c0 46.32381 36.571429 82.895238 82.895238 82.895238h512c46.32381 0 82.895238-36.571429 82.895238-82.895238v-17.066666h65.828571c46.32381 0 82.895238-36.571429 82.895238-82.895238v-114.590477c-2.438095-46.32381-39.009524-82.895238-85.333333-82.895238zM546.133333 160.914286l177.980953 187.733333h-95.085715c-46.32381 0-82.895238-36.571429-82.895238-82.895238V160.914286z m114.590477 731.428571H214.552381c-46.32381 0-82.895238-36.571429-82.895238-82.895238V216.990476C131.657143 170.666667 170.666667 134.095238 214.552381 134.095238H512v163.352381c0 46.32381 36.571429 82.895238 82.895238 82.895238h148.72381v163.352381H297.447619c-46.32381 0-82.895238 36.571429-82.895238 82.895238v114.590476c0 46.32381 36.571429 82.895238 82.895238 82.895238h443.733333c-7.314286 39.009524-41.447619 68.266667-80.457142 68.266667z m-63.390477-202.361905c-2.438095 51.2-24.380952 78.019048-68.266666 80.457143-43.885714-2.438095-65.828571-29.257143-68.266667-80.457143 2.438095-53.638095 24.380952-80.457143 68.266667-82.895238 43.885714 2.438095 65.828571 31.695238 68.266666 82.895238zM453.485714 609.52381l-34.133333 158.47619H390.095238c-14.628571-70.704762-24.380952-109.714286-24.380952-112.152381-2.438095-2.438095-2.438095-7.314286-2.438096-14.628571 0 2.438095 0 4.87619-2.438095 9.752381v4.87619c0 2.438095-9.752381 41.447619-26.819047 112.152381H307.2L273.066667 609.52381h26.819047c12.190476 65.828571 17.066667 102.4 19.504762 112.15238 2.438095 7.314286 2.438095 12.190476 2.438095 17.066667h2.438096c0-2.438095 2.438095-9.752381 2.438095-17.066667 2.438095-9.752381 9.752381-48.761905 24.380952-112.15238h26.819048c17.066667 73.142857 24.380952 109.714286 24.380952 114.590476 2.438095 7.314286 2.438095 12.190476 2.438096 14.628571 0-2.438095 0-7.314286 2.438095-14.628571 0-2.438095 7.314286-41.447619 19.504762-117.028572l26.819047 2.438096z m256 158.47619l-39.009524-63.390476h-24.380952v63.390476h-26.819048V609.52381H682.666667c31.695238 0 48.761905 17.066667 51.2 46.323809 0 26.819048-12.190476 43.885714-36.571429 46.32381l43.885714 65.828571h-31.695238z m95.085715 0h-46.32381V609.52381H804.571429c48.761905 0 73.142857 26.819048 73.142857 78.019047 0 56.07619-21.942857 82.895238-73.142857 80.457143z" fill="#4995E8" p-id="1406"></path></svg>