<?xml version="1.0" standalone="no"?><!DOCTYPE svg PUBLIC "-//W3C//DTD SVG 1.1//EN" "http://www.w3.org/Graphics/SVG/1.1/DTD/svg11.dtd"><svg t="1740236850723" class="icon" viewBox="0 0 1024 1024" version="1.1" xmlns="http://www.w3.org/2000/svg" p-id="2399" xmlns:xlink="http://www.w3.org/1999/xlink" width="200" height="200"><path d="M512 63.99842c185.563419 0 335.991705 150.428286 335.991705 335.991705v159.99605h-95.99763V399.990125c0-132.540728-107.453347-239.994075-239.994075-239.994075-132.540728 0-239.994075 107.453347-239.994075 239.994075v159.99605h-95.99763V399.990125c0-185.563419 150.428286-335.991705 335.991705-335.991705z" fill="#FF9D88" p-id="2400"></path><path d="M256.00632 511.98736h31.99921a31.99921 31.99921 0 0 1 31.99921 31.99921v383.990521a31.99921 31.99921 0 0 1-31.99921 31.99921h-31.99921C132.297374 959.976301 32.01185 859.690776 32.01185 735.98183s100.285524-223.99447 223.99447-223.99447zM767.99368 511.98736h-31.99921a31.99921 31.99921 0 0 0-31.99921 31.99921v383.990521a31.99921 31.99921 0 0 0 31.99921 31.99921h31.99921c123.708946 0 223.99447-100.285524 223.99447-223.994471s-100.285524-223.99447-223.99447-223.99447z" fill="#FF5733" p-id="2401"></path><path d="M464.001185 399.990125h95.99763a63.99842 63.99842 0 0 1 63.99842 63.99842v399.990126H400.002765V463.988545a63.99842 63.99842 0 0 1 63.99842-63.99842z" fill="#F8BB37" p-id="2402"></path><path d="M400.002765 863.978671l99.64554 153.276216a14.735636 14.735636 0 0 0 24.70339 0L623.997235 863.978671a407.669936 407.669936 0 0 0-223.99447 0z" fill="#F6ECAB" p-id="2403"></path><path d="M480.304782 987.52762a151.788253 151.788253 0 0 1 63.374436 0l-19.327523 29.743266a14.735636 14.735636 0 0 1-24.70339 0z" fill="#000000" p-id="2404"></path></svg>