<?xml version="1.0" standalone="no"?><!DOCTYPE svg PUBLIC "-//W3C//DTD SVG 1.1//EN" "http://www.w3.org/Graphics/SVG/1.1/DTD/svg11.dtd"><svg t="1740035817895" class="icon" viewBox="0 0 1024 1024" version="1.1" xmlns="http://www.w3.org/2000/svg" p-id="2624" xmlns:xlink="http://www.w3.org/1999/xlink" width="200" height="200"><path d="M915.3024 348.16a433.2544 433.2544 0 0 0-95.5904-143.872 435.2 435.2 0 1 0 125.44 350.4128 25.6 25.6 0 1 1 50.944 4.9664 485.888 485.888 0 0 1-34.6112 138.496 487.0656 487.0656 0 0 1-105.5232 157.7984A486.4 486.4 0 1 1 947.2 294.5536V143.36a25.6 25.6 0 0 1 51.2 0v230.4a25.6 25.6 0 0 1-25.6 25.6h-230.4a25.6 25.6 0 0 1 0-51.2h172.9024z" fill="#4A4A4A" p-id="2625"></path></svg>