<?xml version="1.0" standalone="no"?><!DOCTYPE svg PUBLIC "-//W3C//DTD SVG 1.1//EN" "http://www.w3.org/Graphics/SVG/1.1/DTD/svg11.dtd"><svg t="1741588122800" class="icon" viewBox="0 0 1024 1024" version="1.1" xmlns="http://www.w3.org/2000/svg" p-id="6021" xmlns:xlink="http://www.w3.org/1999/xlink" width="200" height="200"><path d="M512.19272 420.856964l135.339412-135.339412 44.580138 44.580137 45.859338 45.859338-135.339413 135.339413 135.339413 135.339413-44.580138 44.644097-45.859338 45.795378-135.339412-135.339413-135.339413 135.339413-90.503436-90.439475 135.339413-135.339413-135.339413-135.339413 90.503436-90.439475L512.19272 420.856964z m-0.511681 603.079076a511.6802 511.6802 0 1 1 0-1023.3604 511.6802 511.6802 0 0 1 0 1023.3604z m0-127.92005a383.76015 383.76015 0 1 0 0-767.5203 383.76015 383.76015 0 0 0 0 767.5203z" fill="#333333" p-id="6022"></path></svg>